<svg width="194" height="74" viewBox="0 0 194 74" fill="none" xmlns="http://www.w3.org/2000/svg">
<path d="M1.92 33.92C1.92 31.488 2.336 29.264 3.168 27.248C4 25.2 5.152 23.456 6.624 22.016C8.128 20.544 9.904 19.408 11.952 18.608C14 17.776 16.256 17.36 18.72 17.36C20.64 17.36 22.448 17.616 24.144 18.128C25.872 18.64 27.424 19.376 28.8 20.336C30.176 21.296 31.36 22.464 32.352 23.84C33.376 25.184 34.16 26.704 34.704 28.4H28.464C27.536 26.576 26.224 25.168 24.528 24.176C22.832 23.152 20.896 22.64 18.72 22.64C17.088 22.64 15.6 22.928 14.256 23.504C12.912 24.048 11.744 24.816 10.752 25.808C9.792 26.8 9.04 27.984 8.496 29.36C7.952 30.736 7.68 32.256 7.68 33.92C7.68 35.552 7.952 37.072 8.496 38.48C9.04 39.856 9.792 41.04 10.752 42.032C11.744 43.024 12.912 43.808 14.256 44.384C15.6 44.928 17.088 45.2 18.72 45.2C20.896 45.2 22.832 44.704 24.528 43.712C26.224 42.688 27.536 41.264 28.464 39.44H34.704C34.16 41.136 33.376 42.672 32.352 44.048C31.36 45.392 30.176 46.544 28.8 47.504C27.424 48.464 25.872 49.2 24.144 49.712C22.448 50.224 20.64 50.48 18.72 50.48C16.256 50.48 14 50.08 11.952 49.28C9.904 48.448 8.128 47.296 6.624 45.824C5.152 44.352 4 42.608 3.168 40.592C2.336 38.576 1.92 36.352 1.92 33.92ZM49.8094 31.76C48.1134 31.76 46.7694 32.224 45.7774 33.152C44.7854 34.08 44.2894 35.344 44.2894 36.944V50H39.0094V37.136C39.0094 35.504 39.2654 34.032 39.7774 32.72C40.2894 31.408 41.0094 30.288 41.9374 29.36C42.8974 28.432 44.0334 27.728 45.3454 27.248C46.6894 26.736 48.1774 26.48 49.8094 26.48V31.76ZM51.7369 38.48C51.7369 36.784 52.0409 35.216 52.6489 33.776C53.2889 32.304 54.1369 31.024 55.1929 29.936C56.2809 28.848 57.5609 28 59.0329 27.392C60.5049 26.784 62.0729 26.48 63.7369 26.48C65.4329 26.48 67.0009 26.784 68.4409 27.392C69.9129 28 71.1929 28.848 72.2809 29.936C73.3689 31.024 74.2169 32.304 74.8249 33.776C75.4329 35.216 75.7369 36.784 75.7369 38.48C75.7369 40.144 75.4329 41.712 74.8249 43.184C74.2169 44.656 73.3689 45.936 72.2809 47.024C71.1929 48.08 69.9129 48.928 68.4409 49.568C67.0009 50.176 65.4329 50.48 63.7369 50.48C62.0729 50.48 60.5049 50.176 59.0329 49.568C57.5609 48.928 56.2809 48.08 55.1929 47.024C54.1369 45.936 53.2889 44.656 52.6489 43.184C52.0409 41.712 51.7369 40.144 51.7369 38.48ZM57.0169 38.48C57.0169 39.44 57.1929 40.336 57.5449 41.168C57.8969 41.968 58.3609 42.672 58.9369 43.28C59.5449 43.856 60.2489 44.32 61.0489 44.672C61.8809 45.024 62.7769 45.2 63.7369 45.2C64.6969 45.2 65.5769 45.024 66.3769 44.672C67.2089 44.32 67.9289 43.856 68.5369 43.28C69.1449 42.672 69.6089 41.968 69.9289 41.168C70.2809 40.336 70.4569 39.44 70.4569 38.48C70.4569 37.52 70.2809 36.64 69.9289 35.84C69.6089 35.008 69.1449 34.288 68.5369 33.68C67.9289 33.072 67.2089 32.608 66.3769 32.288C65.5769 31.936 64.6969 31.76 63.7369 31.76C62.7769 31.76 61.8809 31.936 61.0489 32.288C60.2489 32.608 59.5449 33.072 58.9369 33.68C58.3609 34.288 57.8969 35.008 57.5449 35.84C57.1929 36.64 57.0169 37.52 57.0169 38.48ZM91.7708 26.96H96.2828L100.987 42.368L105.739 26.96H111.355L103.627 50H98.9708L94.0268 34.544L89.0828 50H84.4268L76.6988 26.96H82.3148L87.0668 42.368L91.7708 26.96ZM131.524 17.84H136.804V41.36H131.524V38.24C131.524 37.312 131.348 36.464 130.996 35.696C130.676 34.896 130.228 34.208 129.652 33.632C129.076 33.056 128.388 32.608 127.588 32.288C126.82 31.936 125.972 31.76 125.044 31.76C124.148 31.76 123.3 31.936 122.5 32.288C121.732 32.608 121.044 33.056 120.436 33.632C119.86 34.208 119.396 34.896 119.044 35.696C118.724 36.464 118.564 37.312 118.564 38.24C118.564 39.136 118.724 39.984 119.044 40.784C119.396 41.584 119.86 42.272 120.436 42.848C121.044 43.424 121.732 43.888 122.5 44.24C123.3 44.56 124.148 44.72 125.044 44.72H136.804V50H125.044C123.412 50 121.876 49.696 120.436 49.088C118.996 48.48 117.748 47.648 116.692 46.592C115.636 45.536 114.804 44.304 114.196 42.896C113.588 41.456 113.284 39.904 113.284 38.24C113.284 36.608 113.572 35.072 114.148 33.632C114.756 32.192 115.556 30.944 116.548 29.888C117.572 28.832 118.772 28 120.148 27.392C121.556 26.784 123.044 26.48 124.612 26.48C125.956 26.48 127.204 26.688 128.356 27.104C129.508 27.52 130.564 28.096 131.524 28.832V17.84ZM140.659 38.48C140.659 36.752 140.947 35.152 141.523 33.68C142.131 32.208 142.963 30.944 144.019 29.888C145.075 28.8 146.323 27.968 147.763 27.392C149.235 26.784 150.835 26.48 152.563 26.48C154.291 26.48 155.875 26.784 157.315 27.392C158.787 27.968 160.051 28.8 161.107 29.888C162.163 30.944 162.979 32.208 163.555 33.68C164.163 35.152 164.467 36.752 164.467 38.48C164.467 38.704 164.451 38.928 164.419 39.152C164.419 39.344 164.387 39.6 164.323 39.92H146.035C146.323 41.552 147.027 42.848 148.147 43.808C149.299 44.736 150.771 45.2 152.563 45.2C153.779 45.2 154.851 44.976 155.779 44.528C156.739 44.08 157.507 43.424 158.083 42.56H163.843C163.459 43.776 162.915 44.88 162.211 45.872C161.507 46.832 160.659 47.664 159.667 48.368C158.707 49.04 157.619 49.568 156.403 49.952C155.219 50.304 153.939 50.48 152.563 50.48C150.835 50.48 149.235 50.192 147.763 49.616C146.323 49.008 145.075 48.176 144.019 47.12C142.963 46.064 142.131 44.8 141.523 43.328C140.947 41.856 140.659 40.24 140.659 38.48ZM158.851 36.08C158.403 34.736 157.635 33.68 156.547 32.912C155.459 32.144 154.131 31.76 152.563 31.76C150.963 31.76 149.619 32.144 148.531 32.912C147.443 33.68 146.691 34.736 146.275 36.08H158.851ZM179.091 31.76C177.395 31.76 176.051 32.224 175.059 33.152C174.067 34.08 173.571 35.344 173.571 36.944V50H168.291V37.136C168.291 35.504 168.547 34.032 169.059 32.72C169.571 31.408 170.291 30.288 171.219 29.36C172.179 28.432 173.315 27.728 174.627 27.248C175.971 26.736 177.459 26.48 179.091 26.48V31.76Z" fill="#0B0B0B"/>
<rect x="132" y="17" width="5.5" height="24" fill="#A0C878"/>
<circle cx="189" cy="45" r="5" fill="#A0C878"/>
</svg>
